<?xml version="1.0" encoding="UTF-8"?>
<svg id="Layer_1" data-name="Layer 1" xmlns="http://www.w3.org/2000/svg" viewBox="0 0 160 112">
  <defs>
    <style>
      .cls-1 {
        fill: #fff;
      }

      .cls-2 {
        stroke-miterlimit: 10;
      }

      .cls-2, .cls-3 {
        fill: none;
        stroke: #000;
        stroke-width: 1px;
      }

      .cls-3 {
        stroke-linecap: round;
        stroke-linejoin: round;
      }
    </style>
  </defs>
  <rect class="cls-1" x="-1.3" y="-.02" width="161.3" height="112"/>
  <g>
    <path class="cls-3" d="M71.57,64.62H9.93c-4.54,0-8.22-3.68-8.22-8.22v-.71c0-4.54,3.68-8.22,8.22-8.22h61.63v17.16Z"/>
    <line class="cls-2" x1="10.14" y1="64.73" x2="10.14" y2="47.47"/>
    <line class="cls-2" x1="63.36" y1="64.73" x2="63.36" y2="47.47"/>
    <polyline class="cls-3" points="71.66 62.65 89.9 75.06 89.9 36.1 71.66 48.5"/>
  </g>
  <line class="cls-2" x1="89.93" y1="41.27" x2="160.22" y2="30.3"/>
  <line class="cls-2" x1="90.26" y1="43.63" x2="160.54" y2="34.43"/>
  <line class="cls-2" x1="90.09" y1="46.57" x2="160.51" y2="39.96"/>
  <line class="cls-2" x1="90.09" y1="49.36" x2="160.63" y2="45.47"/>
  <line class="cls-2" x1="89.93" y1="52.73" x2="160.59" y2="50.78"/>
  <line class="cls-2" x1="89.93" y1="55.09" x2="160.48" y2="54.94"/>
  <line class="cls-2" x1="89.83" y1="58.26" x2="160.63" y2="60.18"/>
  <line class="cls-2" x1="89.97" y1="61.2" x2="160.48" y2="65.24"/>
  <path class="cls-2" d="M89.83,64.01c.15-.1,31.37,2.65,70.9,6.17"/>
  <line class="cls-2" x1="89.83" y1="66.39" x2="160.63" y2="74.96"/>
  <line class="cls-2" x1="89.83" y1="69.05" x2="160.73" y2="79.99"/>
  <rect x="10.13" y="47.43" width="53.45" height="17.56"/>
</svg>