<?xml version="1.0" encoding="UTF-8"?>
<svg id="Layer_2" data-name="Layer 2" xmlns="http://www.w3.org/2000/svg" xmlns:xlink="http://www.w3.org/1999/xlink" viewBox="0 0 160 112">
  <defs>
    <style>
      .cls-1 {
        stroke-width: 3.61px;
      }

      .cls-1, .cls-2, .cls-3, .cls-4, .cls-5, .cls-6, .cls-7 {
        fill: none;
      }

      .cls-1, .cls-2, .cls-3, .cls-5, .cls-6, .cls-7 {
        stroke: #000;
        stroke-miterlimit: 10;
      }

      .cls-8 {
        clip-path: url(#clippath-4);
      }

      .cls-2 {
        stroke-width: 6.12px;
      }

      .cls-9 {
        fill: #fff;
      }

      .cls-3 {
        stroke-width: 3.71px;
      }

      .cls-10 {
        clip-path: url(#clippath-1);
      }

      .cls-11 {
        clip-path: url(#clippath-5);
      }

      .cls-12 {
        clip-path: url(#clippath-3);
      }

      .cls-5 {
        stroke-width: 4.18px;
      }

      .cls-6 {
        stroke-width: 1.57px;
      }

      .cls-7 {
        stroke-width: 9px;
      }

      .cls-13 {
        clip-path: url(#clippath);
      }
    </style>
    <clipPath id="clippath">
      <polygon class="cls-4" points="-69.84 112.08 -229.72 112.08 -229.88 .02 -70 .02 -69.84 112.08"/>
    </clipPath>
    <clipPath id="clippath-1">
      <polygon class="cls-4" points="160.02 112.03 .14 112.03 -.02 -.03 159.86 -.03 160.02 112.03"/>
    </clipPath>
    <clipPath id="clippath-2">
      <polygon class="cls-4" points="-69.84 -54.4 -229.72 -54.4 -229.88 -166.45 -70 -166.45 -69.84 -54.4"/>
    </clipPath>
    <clipPath id="clippath-3">
      <polygon class="cls-4" points="160.02 -54.45 .14 -54.45 -.02 -166.5 159.86 -166.5 160.02 -54.45"/>
    </clipPath>
    <clipPath id="clippath-4">
      <rect class="cls-4" x="-423.97" y="360.17" width="1248" height="948"/>
    </clipPath>
    <clipPath id="clippath-5">
      <polygon class="cls-4" points="385.22 708.28 4.15 710.73 3.81 426.64 384.82 425.4 385.22 708.28"/>
    </clipPath>
  </defs>
  <rect class="cls-9" width="160" height="112"/>
  <g class="cls-13">
    <g>
      <g>
        <g>
          <line class="cls-5" x1="6.16" y1="59.07" x2="-15.49" y2="16.37"/>
          <line class="cls-5" x1="16.69" y1="26.89" x2="-26.01" y2="48.54"/>
        </g>
        <g>
          <line class="cls-5" x1="89.75" y1="16.68" x2="68.1" y2="-26.02"/>
          <line class="cls-5" x1="100.28" y1="-15.49" x2="57.58" y2="6.16"/>
        </g>
      </g>
      <g>
        <g>
          <line class="cls-5" x1="45.93" y1="137.49" x2="24.28" y2="94.79"/>
          <line class="cls-5" x1="56.45" y1="105.31" x2="13.75" y2="126.96"/>
        </g>
        <g>
          <line class="cls-5" x1="129.52" y1="95.1" x2="107.87" y2="52.4"/>
          <line class="cls-5" x1="140.04" y1="62.93" x2="97.34" y2="84.58"/>
        </g>
      </g>
    </g>
  </g>
  <g class="cls-10">
    <g>
      <line class="cls-3" x1=".09" y1="-34.71" x2="-24.75" y2="-.23"/>
      <g>
        <g>
          <line class="cls-1" x1="19.75" y1="109.09" x2="-13.79" y2="84.92"/>
          <line class="cls-1" x1="15.06" y1="80.23" x2="-9.1" y2="113.77"/>
        </g>
        <g>
          <line class="cls-1" x1="62.64" y1="47.88" x2="29.09" y2="23.71"/>
          <line class="cls-1" x1="57.95" y1="19.02" x2="33.78" y2="52.57"/>
        </g>
      </g>
      <g>
        <g>
          <line class="cls-1" x1="127.05" y1="93.82" x2="93.51" y2="69.65"/>
          <line class="cls-1" x1="122.36" y1="64.96" x2="98.19" y2="98.51"/>
        </g>
        <g>
          <line class="cls-1" x1="174.37" y1="28.15" x2="140.82" y2="3.98"/>
          <line class="cls-1" x1="169.68" y1="-.71" x2="145.51" y2="32.84"/>
        </g>
      </g>
      <line class="cls-3" x1="194.84" y1="131.78" x2="160.37" y2="106.94"/>
    </g>
  </g>
  <g class="cls-12">
    <g>
      <line class="cls-6" x1="1.14" y1="5.13" x2="-13.25" y2="-5.6"/>
      <g>
        <g>
          <line class="cls-6" x1="6.57" y1="53.02" x2="-7.83" y2="42.29"/>
          <line class="cls-6" x1="4.74" y1="40.46" x2="-5.99" y2="54.85"/>
        </g>
        <g>
          <line class="cls-6" x1="27.58" y1="24.84" x2="13.18" y2="14.11"/>
          <line class="cls-6" x1="25.74" y1="12.28" x2="15.01" y2="26.67"/>
        </g>
      </g>
      <g>
        <g>
          <line class="cls-6" x1="33" y1="72.73" x2="18.61" y2="62"/>
          <line class="cls-6" x1="31.17" y1="60.17" x2="20.44" y2="74.56"/>
        </g>
        <g>
          <line class="cls-6" x1="54.01" y1="44.55" x2="39.62" y2="33.82"/>
          <line class="cls-6" x1="52.18" y1="31.99" x2="41.45" y2="46.38"/>
        </g>
        <g>
          <line class="cls-6" x1="75.02" y1="16.37" x2="60.62" y2="5.64"/>
          <line class="cls-6" x1="73.19" y1="3.81" x2="62.45" y2="18.21"/>
        </g>
      </g>
      <g>
        <g>
          <line class="cls-6" x1="59.44" y1="92.44" x2="45.04" y2="81.7"/>
          <line class="cls-6" x1="57.61" y1="79.87" x2="46.87" y2="94.27"/>
        </g>
        <g>
          <line class="cls-6" x1="80.44" y1="64.26" x2="66.05" y2="53.53"/>
          <line class="cls-6" x1="78.61" y1="51.7" x2="67.88" y2="66.09"/>
        </g>
        <g>
          <line class="cls-6" x1="101.45" y1="36.08" x2="87.06" y2="25.35"/>
          <line class="cls-6" x1="99.62" y1="23.52" x2="88.89" y2="37.91"/>
        </g>
        <g>
          <line class="cls-6" x1="122.46" y1="7.91" x2="108.07" y2="-2.83"/>
          <line class="cls-6" x1="120.63" y1="-4.66" x2="109.9" y2="9.74"/>
        </g>
      </g>
    </g>
  </g>
  <g class="cls-8">
    <g>
      <line class="cls-7" x1="-21.95" y1="4.19" x2="38.5" y2="-79.28"/>
      <g>
        <line class="cls-7" x1="141.44" y1="122.53" x2="201.89" y2="39.06"/>
        <line class="cls-7" x1="213.4" y1="111.02" x2="129.93" y2="50.57"/>
      </g>
    </g>
  </g>
  <g class="cls-11">
    <g>
      <line class="cls-2" x1="-10.42" y1="89.28" x2="35.8" y2="36.6"/>
      <line class="cls-2" x1="39.03" y1="86.05" x2="-13.65" y2="39.83"/>
    </g>
  </g>
</svg>